<?xml version="1.0" standalone="no"?>
<!DOCTYPE svg PUBLIC "-//W3C//DTD SVG 20010904//EN"
 "http://www.w3.org/TR/2001/REC-SVG-20010904/DTD/svg10.dtd">
<svg version="1.0" xmlns="http://www.w3.org/2000/svg"
 width="5000.000000pt" height="2247.000000pt" viewBox="0 0 5000.000000 2247.000000"
 preserveAspectRatio="xMidYMid meet">

<g transform="translate(0.000000,2247.000000) scale(0.100000,-0.100000)"
fill="#ffffff" stroke="none">
<path d="M6865 22463 c-158 -21 -287 -63 -374 -121 -89 -60 -2302 -1934 -2360
-1999 -59 -65 -121 -186 -145 -283 -35 -138 -37 -282 -33 -2192 4 -1904 5
-1961 42 -2258 56 -450 178 -747 499 -1220 51 -74 698 -946 1439 -1937 l1347
-1803 0 -1122 c0 -642 4 -1162 10 -1213 35 -327 168 -518 417 -595 164 -51
137 -50 1781 -50 1636 0 1588 -1 1732 47 129 43 157 65 1339 1046 641 532
1189 992 1217 1023 68 74 119 173 152 291 l27 98 3 1179 3 1179 1328 1796
c1441 1950 1445 1955 1564 2146 202 325 307 589 358 905 54 329 52 253 56
2405 3 1432 1 2023 -7 2080 -40 292 -180 477 -414 551 -177 56 -152 55 -1714
51 -1424 -3 -1438 -3 -1522 -24 -113 -28 -183 -57 -250 -102 -88 -59 -2302
-1934 -2358 -1996 -79 -89 -125 -187 -160 -340 -13 -60 -16 -210 -21 -1099
l-6 -1029 -102 144 c-146 205 -192 325 -213 559 -6 73 -10 676 -10 1655 0
1296 -2 1555 -15 1635 -18 123 -39 189 -83 273 -83 160 -212 250 -433 303 -69
17 -173 18 -1569 20 -822 1 -1508 -1 -1525 -3z m3084 -196 c204 -69 299 -173
347 -377 16 -69 18 -199 24 -1760 5 -1207 10 -1699 18 -1733 18 -76 38 -138
62 -192 19 -41 814 -1299 939 -1484 45 -67 108 -123 177 -157 114 -56 407 -56
528 -1 73 34 136 94 200 191 266 405 897 1407 923 1468 79 181 83 279 83 2111
0 1625 -3 1550 65 1694 56 120 147 192 301 240 56 17 132 18 1554 18 l1495 0
75 -24 c101 -31 144 -54 201 -108 60 -56 111 -154 136 -260 17 -74 18 -177 18
-2013 0 -2002 -1 -2049 -41 -2335 -43 -305 -97 -474 -244 -765 -71 -139 -216
-379 -317 -523 -31 -45 -652 -888 -1380 -1874 l-1322 -1792 -4 -1183 c-3
-1091 -5 -1189 -21 -1258 -52 -220 -167 -336 -383 -387 -74 -17 -165 -18
-1638 -18 -1470 0 -1564 1 -1637 18 -202 48 -314 153 -375 354 -16 54 -18 149
-23 1273 l-5 1215 -1341 1795 c-1462 1958 -1438 1926 -1550 2102 -218 345
-324 602 -379 921 -51 302 -50 240 -50 2412 0 2229 -5 2061 61 2199 61 128
209 226 379 249 17 2 714 4 1550 3 1445 -1 1523 -2 1574 -19z"/>
<path d="M8263 19493 c3 -1056 6 -1262 20 -1403 9 -91 22 -190 28 -220 29
-152 103 -335 181 -448 126 -183 1755 -2445 1813 -2517 95 -117 258 -276 361
-352 159 -117 367 -205 566 -239 51 -8 168 -18 261 -21 l167 -6 0 -1488 0
-1489 85 0 85 0 0 1488 0 1489 148 6 c485 20 798 176 1131 562 68 79 1825
2442 1921 2585 82 120 145 271 174 417 35 171 39 317 43 1601 l4 1272 -84 0
-85 0 -5 -1187 c-5 -1141 -8 -1269 -38 -1537 -21 -196 -85 -379 -178 -516 -75
-110 -1765 -2386 -1827 -2461 -99 -119 -275 -282 -383 -354 -151 -100 -293
-158 -472 -190 -83 -15 -147 -16 -485 -12 -422 5 -449 8 -625 67 -128 43 -244
99 -333 160 -101 70 -245 221 -347 365 -47 66 -449 626 -894 1245 -445 619
-828 1156 -852 1194 -85 138 -149 329 -172 511 -30 243 -34 378 -38 1528 l-4
1187 -85 0 -85 0 4 -1237z"/>
<path d="M21285 22459 c-91 -13 -232 -56 -297 -91 -67 -36 -2312 -1924 -2396
-2016 -61 -67 -122 -184 -154 -297 l-23 -80 -3 -5805 c-2 -4131 0 -5830 8
-5890 38 -295 183 -489 420 -560 180 -53 -103 -50 4440 -47 3990 2 4198 3
4255 20 110 33 209 77 260 115 144 109 2309 1913 2361 1967 99 103 158 238
184 420 6 43 10 501 10 1200 0 1225 -1 1242 -55 1396 -35 102 -79 171 -153
240 -86 81 -162 118 -317 156 -64 16 -192 18 -1374 23 l-1305 5 786 662 c432
365 807 686 832 715 92 105 145 241 166 426 8 67 10 420 8 1152 -4 1046 -4
1056 -26 1149 -43 182 -135 325 -257 397 -45 26 -46 28 -28 44 10 10 352 292
759 628 408 336 762 635 788 664 57 65 119 189 148 293 22 80 22 82 26 1240 2
797 0 1190 -8 1255 -35 305 -170 493 -413 575 -175 58 103 55 -4427 54 -2285
-1 -4182 -5 -4215 -10z m8550 -202 c149 -52 237 -131 288 -260 53 -131 52
-116 52 -1357 0 -1286 3 -1225 -68 -1375 -59 -122 -159 -198 -318 -242 -60
-16 -217 -18 -2556 -20 l-2493 -3 0 -670 0 -670 1718 0 c1088 0 1750 -4 1807
-10 259 -29 391 -126 464 -338 l26 -77 3 -1100 c3 -1222 5 -1189 -63 -1330
-43 -89 -110 -157 -200 -200 -140 -68 -35 -65 -1990 -65 l-1765 0 0 -750 0
-750 2483 -3 c2297 -2 2487 -4 2551 -20 163 -40 271 -118 331 -241 73 -148 70
-86 70 -1386 0 -1069 -1 -1171 -17 -1239 -51 -217 -170 -337 -385 -388 -75
-17 -252 -18 -4268 -18 -4016 0 -4193 1 -4268 18 -247 58 -364 197 -397 471
-8 66 -10 1696 -8 5846 l3 5755 22 77 c51 179 137 281 283 333 125 46 -80 44
4390 42 l4225 -2 80 -28z"/>
<path d="M22730 16020 l0 -4710 2940 0 2941 0 -3 88 -3 87 -2847 3 -2848 2 0
2255 0 2255 2143 2 2142 3 0 85 0 85 -2142 3 -2143 2 0 2185 0 2185 2850 0
2850 0 0 90 0 90 -2940 0 -2940 0 0 -4710z"/>
<path d="M34435 22459 c-150 -22 -301 -80 -385 -148 -214 -172 -2249 -1897
-2296 -1946 -74 -77 -137 -193 -164 -302 -11 -43 -25 -143 -31 -223 -7 -97 -9
-2010 -7 -5840 l3 -5695 23 -100 c32 -141 96 -270 172 -344 63 -62 161 -119
250 -145 155 -46 150 -46 1703 -46 1566 0 1523 -1 1667 47 130 43 148 57 1330
1038 641 531 1191 994 1222 1028 65 69 130 190 153 282 30 122 35 211 35 671
l0 471 133 7 c712 37 1289 151 1802 355 252 101 562 273 756 419 63 48 635
519 1270 1047 1224 1017 1360 1138 1520 1350 345 456 522 958 616 1750 14 110
17 347 20 1520 5 1408 1 1584 -33 1880 -39 343 -120 700 -219 972 -56 153
-176 387 -274 534 -362 544 -871 900 -1646 1152 -422 137 -826 208 -1470 259
-183 14 -6054 21 -6150 7z m6076 -179 c1058 -60 1837 -277 2374 -663 138 -99
309 -265 440 -427 407 -505 633 -1090 712 -1848 16 -151 18 -300 18 -1562 0
-1526 0 -1522 -61 -1879 -109 -638 -350 -1164 -742 -1619 -519 -602 -1366
-915 -2717 -1002 -83 -5 -696 -10 -1372 -10 l-1222 0 -4 -1527 -3 -1528 -22
-83 c-56 -210 -168 -319 -379 -369 -74 -17 -163 -18 -1583 -18 -1435 0 -1508
1 -1575 19 -207 55 -310 153 -367 351 l-23 80 0 5825 0 5825 23 80 c51 176
136 269 299 327 32 11 78 24 103 28 71 12 5884 12 6101 0z"/>
<path d="M35930 16020 l0 -4711 88 3 87 3 3 1712 2 1712 1948 4 c1298 3 1990
8 2077 16 444 37 750 99 1013 205 460 185 734 423 922 801 82 164 117 268 159
466 76 363 81 457 81 1484 -1 1020 -7 1131 -86 1507 -81 389 -267 725 -522
944 -325 280 -813 468 -1372 528 -306 33 -506 36 -2451 36 l-1949 0 0 -4710z
m4300 4511 c476 -60 721 -125 1002 -268 454 -230 726 -602 832 -1138 67 -343
76 -511 76 -1422 0 -911 -12 -1115 -84 -1441 -101 -450 -334 -785 -699 -999
-337 -198 -735 -299 -1312 -333 -101 -6 -930 -10 -2052 -10 l-1883 0 0 2815 0
2816 2013 -4 c1485 -3 2037 -7 2107 -16z"/>
<path d="M37907 19034 c-4 -4 -7 -598 -7 -1321 l0 -1313 793 0 c816 0 968 6
1102 40 113 29 226 92 285 158 60 67 130 206 164 322 44 155 48 232 43 860 -4
625 -4 623 -58 782 -94 282 -231 401 -521 455 -69 13 -226 16 -938 20 -470 3
-858 1 -863 -3z"/>
<path d="M18829 3372 c-106 -28 -189 -97 -233 -191 -16 -35 -21 -66 -21 -131
0 -73 4 -93 28 -142 72 -146 254 -224 439 -189 134 27 219 85 269 186 143 290
-133 558 -482 467z"/>
<path d="M16910 2770 l0 -409 -74 53 c-174 125 -451 157 -703 82 -305 -91
-530 -337 -599 -656 -22 -97 -29 -304 -15 -397 35 -224 118 -398 257 -537 139
-138 315 -221 526 -247 230 -28 448 26 586 147 l52 46 0 -86 0 -86 305 0 305
0 0 1250 0 1250 -320 0 -320 0 0 -410z m-231 -764 c65 -24 141 -87 178 -148
49 -80 66 -162 61 -287 -7 -160 -48 -254 -147 -334 -66 -53 -128 -72 -236 -71
-76 1 -100 5 -152 29 -142 63 -222 210 -223 404 0 266 165 440 405 427 39 -3
90 -12 114 -20z"/>
<path d="M36390 2764 l0 -416 -45 40 c-24 21 -70 53 -102 70 -185 98 -474 103
-717 12 -80 -30 -220 -126 -287 -196 -172 -182 -251 -393 -251 -675 0 -289 84
-510 261 -688 145 -147 312 -226 533 -252 237 -27 453 29 585 153 l53 51 0
-92 0 -91 305 0 305 0 0 1250 0 1250 -320 0 -320 0 0 -416z m-279 -748 c201
-47 317 -251 282 -494 -24 -164 -89 -264 -209 -323 -61 -30 -74 -33 -163 -33
-111 1 -174 20 -243 77 -52 43 -104 126 -124 199 -18 66 -20 226 -3 293 52
215 245 332 460 281z"/>
<path d="M20364 2907 c-3 -8 -3 -396 -2 -863 3 -838 4 -850 25 -927 54 -189
144 -302 304 -381 131 -64 209 -80 399 -79 163 0 260 14 361 52 105 40 103 18
16 267 -43 119 -79 219 -80 221 -2 1 -23 -7 -48 -19 -36 -18 -61 -23 -136 -23
-87 0 -93 1 -130 31 -68 54 -72 82 -73 452 l0 322 210 0 210 0 0 240 0 240
-210 0 -210 0 0 240 0 240 -315 0 c-254 0 -317 -3 -321 -13z"/>
<path d="M46332 2048 l4 -873 23 -75 c68 -223 209 -357 447 -422 66 -18 106
-21 244 -21 173 0 261 13 370 53 103 39 102 18 14 267 -42 120 -78 219 -80
221 -1 2 -22 -7 -46 -19 -52 -27 -168 -37 -221 -20 -45 15 -93 68 -106 118 -7
23 -11 166 -11 361 l0 322 205 0 205 0 0 240 0 240 -205 0 -205 0 -2 238 -3
237 -318 3 -318 2 3 -872z"/>
<path d="M3815 2529 c-434 -39 -779 -315 -874 -699 -81 -330 15 -672 250 -894
148 -140 321 -226 539 -267 84 -16 346 -16 430 0 394 75 675 314 781 666 30
101 38 340 14 456 -84 415 -427 697 -900 739 -60 5 -119 9 -130 9 -11 -1 -60
-5 -110 -10z m277 -529 c80 -30 166 -115 196 -195 74 -193 37 -423 -87 -544
-72 -70 -139 -94 -261 -94 -83 -1 -103 3 -158 28 -106 48 -180 146 -208 274
-56 265 56 493 270 548 68 17 178 10 248 -17z"/>
<path d="M10047 2529 c-109 -11 -260 -60 -335 -109 -31 -20 -78 -59 -104 -86
l-48 -48 0 112 0 112 -305 0 -305 0 0 -915 0 -915 320 0 320 0 0 438 c0 240 5
469 10 507 34 234 193 351 470 344 l105 -3 0 285 c0 328 16 292 -128 278z"/>
<path d="M13543 2530 c-537 -55 -905 -465 -880 -980 13 -254 103 -451 283
-619 123 -114 268 -193 438 -236 370 -94 774 -34 1011 149 29 23 65 56 80 74
l27 33 -58 62 c-83 89 -266 277 -270 277 -2 0 -38 -22 -80 -50 -94 -61 -181
-90 -300 -97 -150 -9 -282 24 -362 92 -33 28 -97 113 -90 120 2 2 294 60 648
128 l645 123 3 47 c4 67 -23 212 -57 307 -62 168 -215 347 -376 439 -183 105
-432 154 -662 131z m299 -484 c70 -33 134 -96 164 -161 13 -27 22 -51 20 -52
-4 -5 -706 -143 -724 -143 -11 0 -12 12 -7 53 22 162 119 281 263 323 77 22
215 13 284 -20z"/>
<path d="M23198 2530 c-454 -43 -800 -336 -884 -750 -23 -114 -15 -332 16
-440 82 -289 312 -523 614 -626 174 -60 433 -76 620 -40 457 89 766 424 793
861 25 418 -194 763 -584 919 -161 64 -386 94 -575 76z m230 -515 c76 -18 126
-48 181 -111 70 -80 101 -173 101 -304 -1 -199 -79 -341 -223 -406 -54 -24
-74 -28 -157 -28 -151 1 -248 52 -318 167 -44 74 -62 144 -64 252 -2 145 34
257 108 330 101 101 225 135 372 100z"/>
<path d="M26429 2529 c-190 -20 -337 -85 -446 -197 l-43 -44 0 111 0 111 -305
0 -305 0 0 -915 0 -915 319 0 320 0 3 488 c4 467 5 489 25 543 70 186 207 265
445 257 l108 -3 0 288 0 287 -22 -1 c-13 -1 -57 -5 -99 -10z"/>
<path d="M30169 2531 c-78 -11 -196 -48 -249 -78 -25 -14 -71 -48 -102 -75
l-58 -49 0 90 0 91 -305 0 -305 0 0 -1240 0 -1240 320 0 320 0 0 405 0 404 63
-47 c133 -101 255 -137 452 -135 187 1 325 38 473 124 72 43 217 186 267 264
147 231 191 551 115 839 -74 281 -278 507 -540 598 -125 43 -330 66 -451 49z
m83 -512 c108 -23 199 -93 249 -191 64 -125 63 -342 -2 -470 -34 -67 -103
-133 -172 -164 -54 -24 -74 -28 -157 -27 -74 0 -107 5 -153 22 -163 64 -257
264 -226 486 12 94 35 149 89 221 80 106 225 154 372 123z"/>
<path d="M32958 2530 c-174 -16 -351 -76 -493 -167 -86 -56 -228 -199 -273
-275 -53 -89 -99 -206 -117 -293 -19 -92 -21 -285 -5 -374 89 -493 570 -817
1131 -762 265 26 463 110 632 271 165 156 250 325 277 555 57 476 -230 887
-704 1010 -86 22 -283 47 -341 44 -11 -1 -59 -5 -107 -9z m214 -511 c68 -15
112 -37 168 -87 109 -96 155 -279 116 -463 -37 -173 -157 -286 -322 -304 -70
-8 -172 8 -223 35 -185 95 -261 366 -169 605 24 62 101 151 158 180 78 41 180
53 272 34z"/>
<path d="M38920 2530 c-462 -44 -797 -312 -897 -716 -26 -107 -24 -333 5 -447
43 -173 126 -312 258 -436 170 -158 373 -245 637 -272 351 -36 648 62 845 276
55 60 144 207 132 218 -12 10 -479 247 -486 247 -5 0 -22 -23 -39 -51 -38 -65
-104 -124 -175 -158 -49 -23 -66 -26 -155 -25 -114 2 -163 16 -236 69 -103 77
-149 174 -157 335 -4 87 -1 117 17 176 43 145 137 237 278 270 172 41 342 -29
428 -175 17 -28 33 -51 38 -51 17 0 487 241 487 250 0 19 -41 93 -86 156 -112
158 -309 277 -529 319 -95 18 -262 25 -365 15z"/>
<path d="M41470 2530 c-216 -25 -422 -131 -554 -284 -156 -182 -226 -382 -226
-646 0 -285 89 -518 264 -693 145 -145 310 -222 527 -248 233 -27 428 21 577
141 l62 50 0 -85 0 -85 305 0 305 0 0 915 0 915 -320 0 -319 0 -3 -76 -3 -76
-50 40 c-27 22 -73 51 -101 65 -114 58 -306 85 -464 67z m348 -515 c76 -18
126 -48 181 -111 46 -52 65 -90 87 -169 17 -61 18 -195 3 -267 -26 -121 -107
-227 -212 -274 -54 -24 -74 -28 -157 -28 -151 1 -248 52 -318 167 -44 74 -62
144 -64 252 -2 145 34 257 108 330 101 101 225 135 372 100z"/>
<path d="M44448 2530 c-418 -38 -687 -232 -730 -528 -14 -96 -3 -193 32 -287
18 -47 39 -76 95 -131 116 -115 227 -156 563 -209 294 -46 352 -63 374 -110
16 -36 -1 -85 -40 -112 -54 -36 -131 -46 -287 -39 -197 8 -357 47 -513 123
-40 20 -75 33 -78 31 -9 -9 -184 -412 -184 -424 0 -17 162 -89 265 -118 578
-162 1151 -58 1353 244 57 85 83 173 83 280 1 170 -44 274 -158 371 -105 90
-237 135 -539 185 -267 43 -327 61 -358 106 -23 32 -20 62 9 96 40 48 94 64
236 70 183 7 350 -28 498 -102 29 -15 57 -24 61 -19 8 8 190 418 190 427 0 7
-139 62 -210 84 -89 27 -213 49 -345 62 -121 11 -187 11 -317 0z"/>
<path d="M49056 2529 c-327 -31 -574 -165 -675 -368 -39 -79 -52 -141 -52
-246 1 -209 93 -350 286 -441 80 -37 226 -72 465 -109 203 -31 266 -47 296
-76 35 -32 33 -87 -3 -120 -48 -43 -82 -52 -213 -56 -205 -7 -408 34 -592 119
-49 23 -90 39 -91 37 -2 -2 -45 -98 -95 -213 -65 -149 -89 -213 -81 -222 15
-18 164 -80 264 -109 299 -86 644 -97 915 -29 353 89 558 343 512 636 -19 123
-48 184 -122 258 -113 113 -229 158 -545 211 -362 61 -395 74 -395 159 0 39
40 80 96 99 22 7 98 15 169 18 176 7 308 -20 489 -101 32 -15 60 -26 61 -24 7
8 185 419 185 426 0 15 -130 69 -231 96 -190 52 -447 74 -643 55z"/>
<path d="M17 2503 c-11 -10 -8 -885 3 -1008 29 -323 157 -531 399 -643 147
-68 390 -92 554 -56 88 19 218 80 274 128 22 20 45 36 49 36 14 0 -5 -167 -26
-222 -43 -116 -115 -183 -234 -221 -103 -32 -333 -31 -456 2 -110 29 -208 72
-283 122 -33 22 -64 36 -68 32 -4 -4 -57 -105 -118 -223 l-110 -215 57 -37
c213 -138 524 -206 896 -195 163 4 206 9 296 32 400 102 625 362 680 785 5 43
10 421 10 883 l0 807 -320 0 -320 0 0 -422 c0 -338 -3 -436 -15 -486 -40 -171
-147 -270 -300 -280 -165 -10 -267 60 -312 216 -14 48 -17 129 -21 515 l-4
457 -312 0 c-172 0 -316 -3 -319 -7z"/>
<path d="M5940 1948 c0 -600 5 -680 50 -818 38 -115 79 -180 170 -270 124
-124 233 -174 439 -201 222 -30 448 32 594 161 30 28 58 50 61 50 3 0 6 -43 6
-95 l0 -95 305 0 305 0 0 915 0 915 -320 0 -320 0 0 -457 c0 -252 -5 -488 -10
-525 -21 -145 -77 -236 -182 -294 -49 -27 -61 -29 -153 -29 -88 0 -107 3 -149
25 -61 31 -99 78 -128 155 -23 59 -23 68 -26 593 l-3 532 -319 0 -320 0 0
-562z"/>
<path d="M18640 1595 l0 -915 320 0 320 0 0 915 0 915 -320 0 -320 0 0 -915z"/>
</g>
</svg>
